<svg width="24" height="24" viewBox="0 0 24 24" fill="none" xmlns="http://www.w3.org/2000/svg">
<g clip-path="url(#clip0_548_1211)">
<path d="M6.10352e-05 24L1.69633 17.8403C0.647625 16.0323 0.0974822 13.9848 0.103213 11.8916C0.103213 5.3327 5.46711 0 12.0516 0C15.2493 0 18.2522 1.23764 20.5043 3.48479C22.7622 5.73194 24.0058 8.72053 24 11.8973C24 18.4563 18.6362 23.789 12.0459 23.789H12.0402C10.0402 23.789 8.07455 23.2871 6.3267 22.3403L6.10352e-05 24ZM6.63043 20.1901L6.99146 20.4068C8.51581 21.308 10.2637 21.7814 12.0459 21.7871H12.0516C17.5244 21.7871 21.9829 17.3555 21.9829 11.903C21.9829 9.26236 20.9513 6.78137 19.0774 4.91065C17.2035 3.03992 14.7049 2.01331 12.0516 2.01331C6.57885 2.0076 2.1204 6.43916 2.1204 11.8916C2.1204 13.7567 2.64189 15.576 3.63903 17.1502L3.87398 17.5266L2.87112 21.1711L6.63043 20.1901Z" fill="white"/>
<path d="M0.418335 23.5833L2.0573 17.6347C1.04298 15.8951 0.510025 13.916 0.510025 11.897C0.515756 5.56621 5.69054 0.416016 12.0516 0.416016C15.1404 0.416016 18.0344 1.61373 20.212 3.78104C22.3897 5.94834 23.5874 8.83427 23.5874 11.9027C23.5874 18.2335 18.4069 23.3837 12.0516 23.3837H12.0458C10.1146 23.3837 8.21776 22.8989 6.53294 21.9864L0.418335 23.5833Z" fill="url(#paint0_linear_548_1211)"/>
<path d="M6.10352e-05 24L1.69633 17.8403C0.647625 16.0323 0.0974822 13.9848 0.103213 11.8916C0.103213 5.3327 5.46711 0 12.0516 0C15.2493 0 18.2522 1.23764 20.5043 3.48479C22.7622 5.73194 24.0058 8.72053 24 11.8973C24 18.4563 18.6362 23.789 12.0459 23.789H12.0402C10.0402 23.789 8.07455 23.2871 6.3267 22.3403L6.10352e-05 24ZM6.63043 20.1901L6.99146 20.4068C8.51581 21.308 10.2637 21.7814 12.0459 21.7871H12.0516C17.5244 21.7871 21.9829 17.3555 21.9829 11.903C21.9829 9.26236 20.9513 6.78137 19.0774 4.91065C17.2035 3.03992 14.7049 2.01331 12.0516 2.01331C6.57885 2.0076 2.1204 6.43916 2.1204 11.8916C2.1204 13.7567 2.64189 15.576 3.63903 17.1502L3.87398 17.5266L2.87112 21.1711L6.63043 20.1901Z" fill="url(#paint1_linear_548_1211)"/>
<path fill-rule="evenodd" clip-rule="evenodd" d="M9.06585 6.91843C8.84235 6.42223 8.6074 6.41082 8.39536 6.40512C8.22344 6.39941 8.02287 6.39941 7.8223 6.39941C7.62172 6.39941 7.30081 6.47356 7.02574 6.77014C6.75067 7.06671 5.98276 7.78535 5.98276 9.25113C5.98276 10.7112 7.05439 12.1257 7.20339 12.3253C7.35238 12.5249 9.27215 15.6218 12.3037 16.8139C14.8252 17.8063 15.3409 17.6066 15.8853 17.5553C16.4297 17.504 17.6504 16.8367 17.9025 16.1409C18.1489 15.445 18.1489 14.8519 18.0744 14.7264C17.9999 14.6009 17.7994 14.5268 17.5014 14.3785C17.2034 14.2302 15.7363 13.5116 15.4613 13.4089C15.1862 13.312 14.9856 13.2606 14.7908 13.5572C14.5902 13.8538 14.0171 14.5211 13.8452 14.7207C13.6733 14.9203 13.4956 14.9431 13.1977 14.7949C12.8997 14.6466 11.9369 14.3329 10.7965 13.3177C9.90826 12.5306 9.30654 11.5553 9.13462 11.2587C8.9627 10.9622 9.11743 10.8025 9.26642 10.6542C9.39823 10.523 9.56442 10.3063 9.71341 10.1352C9.86241 9.96405 9.91399 9.83858 10.0114 9.63896C10.1088 9.43934 10.063 9.26824 9.98849 9.11995C9.91399 8.97736 9.32946 7.50588 9.06585 6.91843Z" fill="white"/>
</g>
<defs>
<linearGradient id="paint0_linear_548_1211" x1="12.0023" y1="23.5822" x2="12.0023" y2="0.415205" gradientUnits="userSpaceOnUse">
<stop stop-color="#20B038"/>
<stop offset="1" stop-color="#60D66A"/>
</linearGradient>
<linearGradient id="paint1_linear_548_1211" x1="12.0024" y1="23.9977" x2="12.0024" y2="0" gradientUnits="userSpaceOnUse">
<stop stop-color="#F9F9F9"/>
<stop offset="1" stop-color="white"/>
</linearGradient>
<clipPath id="clip0_548_1211">
<rect width="24" height="24" rx="6" fill="white"/>
</clipPath>
</defs>
</svg>
