<svg width="18" height="15" viewBox="0 0 18 15" fill="none" xmlns="http://www.w3.org/2000/svg">
<path d="M17.9991 4.03362C17.9178 4.2618 17.7446 4.37683 17.5258 4.46416C14.8106 5.54825 12.0974 6.63609 9.38597 7.72957C9.12539 7.83474 8.89486 7.84226 8.62912 7.73474C5.89049 6.62764 3.1481 5.5304 0.405247 4.43317C0.205706 4.35335 0.0615679 4.23551 0.0132087 4.02094C-0.0464186 3.75661 0.0991284 3.51528 0.38318 3.40166C1.43112 2.98192 2.47953 2.56265 3.527 2.14245C5.26464 1.44617 7.00228 0.750829 8.73852 0.0503254C8.93994 -0.0308992 9.12023 -0.00648501 9.31366 0.0714531C11.8856 1.10484 14.459 2.13493 17.0319 3.16597C17.1948 3.23123 17.3544 3.30541 17.5206 3.36035C17.7441 3.43406 17.9127 3.56176 17.9986 3.78619V4.03268L17.9991 4.03362Z" fill="#56D1DC"/>
<path d="M17.999 14.2487C17.8544 14.5496 17.6126 14.6445 17.2867 14.6365C16.6318 14.6201 15.9759 14.6318 15.3204 14.6313C14.834 14.6313 14.6096 14.3496 14.726 13.8806C15.0364 12.6303 15.3463 11.38 15.6613 10.1311C15.6904 10.0156 15.674 9.96209 15.5618 9.90012C14.9552 9.56536 14.6636 9.03716 14.6997 8.34981C14.7345 7.68499 15.0674 7.19999 15.6787 6.92532C15.789 6.87603 15.8214 6.82062 15.82 6.70466C15.8153 6.28304 15.82 6.28257 16.205 6.1281C16.4205 6.04171 16.6369 5.95673 16.8717 5.86377C16.8717 6.17317 16.867 6.45957 16.8759 6.7455C16.8778 6.7995 16.9214 6.87931 16.9675 6.89997C17.514 7.14646 17.8515 7.55728 17.9717 8.14698C17.975 8.16247 17.99 8.17562 17.9994 8.18971V8.68269C17.913 8.89819 17.8468 9.12496 17.736 9.32685C17.5708 9.62686 17.3017 9.82734 16.9923 9.97242C17.005 10.0363 17.013 10.0879 17.0257 10.1386C17.2304 10.957 17.4346 11.7758 17.6421 12.5932C17.7586 13.0519 17.8802 13.5087 17.9999 13.9665V14.2482L17.999 14.2487Z" fill="#56D1DC"/>
<path d="M4.33358 7.15255C4.40541 7.17884 4.46504 7.1995 4.52326 7.22298C5.78764 7.72957 7.0539 8.23288 8.31593 8.74559C8.77464 8.93198 9.22067 8.93386 9.67938 8.74793C10.9419 8.2357 12.2077 7.73192 13.4725 7.22532C13.5312 7.20185 13.5904 7.18072 13.6664 7.15161C13.7228 7.59295 13.7772 8.01597 13.8308 8.439C13.8984 8.96813 13.9688 9.49727 14.0312 10.0269C14.0646 10.3105 13.9613 10.5105 13.7458 10.6147C13.5368 10.7156 13.3134 10.6645 13.104 10.4767C12.9687 10.3555 12.8326 10.2349 12.6856 10.1292C12.3288 9.87334 11.9466 9.84047 11.564 10.0597C11.2851 10.2194 11.0184 10.4006 10.7522 10.5814C10.3517 10.8527 9.93385 11.0842 9.45496 11.1814C8.7399 11.3265 8.1009 11.118 7.50181 10.7438C7.14451 10.5203 6.80083 10.2752 6.43791 10.0621C6.05056 9.8339 5.66181 9.87663 5.30123 10.1372C5.15005 10.2466 5.01859 10.3837 4.86835 10.495C4.77679 10.5626 4.67162 10.6335 4.56411 10.6527C4.20681 10.7161 3.91947 10.433 3.96314 10.0663C4.05 9.33857 4.14578 8.61225 4.23827 7.88498C4.26879 7.64694 4.30024 7.40937 4.33405 7.15302L4.33358 7.15255Z" fill="#56D1DC"/>
</svg>
