<svg width="18" height="18" viewBox="0 0 18 18" fill="none" xmlns="http://www.w3.org/2000/svg">
<rect width="18" height="18" rx="4" fill="#56D1DC"/>
<path d="M6.88215 1.92388C6.87617 1.9001 6.8769 1.87512 6.88425 1.85173L7.02152 1.41456L7.3492 1.73485C7.36674 1.75199 7.37918 1.77365 7.38516 1.79744L8.01902 4.3191C8.05394 4.458 7.96964 4.59891 7.83074 4.63382C7.69183 4.66874 7.55093 4.58444 7.51601 4.44554L6.88215 1.92388Z" fill="white"/>
<rect width="1.99165" height="0.518657" rx="0.199165" transform="matrix(0.969829 -0.243784 0.243782 0.96983 6.9458 5.19861)" fill="white"/>
<rect width="2.8" height="7.96658" rx="0.331941" transform="matrix(0.969829 -0.243784 0.243782 0.96983 6.76123 6.12207)" fill="white"/>
<rect width="3.9833" height="0.518657" rx="0.103732" transform="matrix(0.969829 -0.243784 0.243782 0.96983 8.21045 14.3145)" fill="white"/>
<rect width="1.99164" height="1.03732" rx="0.331941" transform="matrix(-0.243782 -0.96983 0.969829 -0.243784 10.3318 16.7118)" fill="white"/>
</svg>
