<svg width="178" height="57" viewBox="0 0 178 57" fill="none" xmlns="http://www.w3.org/2000/svg">
<path d="M25.048 17.032V23.24C25.048 23.56 25.176 23.8267 25.432 24.04C25.688 24.232 25.976 24.328 26.296 24.328H28.6C28.8987 24.328 29.048 24.4773 29.048 24.776V28.552C29.048 28.8507 28.8987 29 28.6 29H26.936C26.616 29 26.2747 28.936 25.912 28.808C25.5493 28.6587 25.2507 28.4347 25.016 28.136V28.68C25.016 29.512 24.8773 30.2907 24.6 31.016C24.3227 31.7413 23.9387 32.4027 23.448 33C22.9787 33.5973 22.4133 34.12 21.752 34.568C21.0907 35.0373 20.3653 35.4 19.576 35.656L14.904 37.224L13.688 33.512L18.552 31.944C19.32 31.7093 19.928 31.2613 20.376 30.6C20.8453 29.9387 21.08 29.2027 21.08 28.392V17.032H25.048ZM20.952 10.408H24.952V14.408H20.952V10.408ZM32.5298 19.88L29.6818 17.16L39.4098 5.768L42.2578 8.392L36.1778 15.56H48.2098C48.9778 15.56 49.6924 15.7093 50.3538 16.008C51.0364 16.2853 51.6231 16.68 52.1138 17.192C52.6258 17.6827 53.0204 18.2693 53.2978 18.952C53.5964 19.6133 53.7458 20.328 53.7458 21.096V23.464C53.7458 24.2533 53.5858 24.9893 53.2658 25.672C52.9671 26.3547 52.5511 26.9413 52.0178 27.432C51.4844 27.9227 50.8764 28.3067 50.1938 28.584C49.5324 28.8613 48.8284 29 48.0818 29H28.5938C28.4871 29 28.3911 28.9573 28.3057 28.872C28.1991 28.7867 28.1457 28.68 28.1457 28.552V24.776C28.1457 24.52 28.2951 24.3707 28.5938 24.328H48.7858C49.0204 24.328 49.2444 24.2427 49.4578 24.072C49.6711 23.9013 49.7778 23.656 49.7778 23.336V21.032C49.7778 20.712 49.6604 20.4453 49.4258 20.232C49.1911 19.9973 48.9244 19.88 48.6258 19.88H32.5298ZM60.6945 29H56.7265V6.792H60.6945V29ZM68.0793 17.032V23.24C68.0793 23.56 68.2073 23.8267 68.4633 24.04C68.7193 24.232 69.0073 24.328 69.3273 24.328H71.3753C71.6739 24.328 71.8233 24.4773 71.8233 24.776V28.552C71.8233 28.8507 71.6739 29 71.3753 29H69.9673C69.6473 29 69.3059 28.936 68.9433 28.808C68.5806 28.6587 68.2819 28.4347 68.0473 28.136V28.68C68.0473 29.512 67.9086 30.2907 67.6313 31.016C67.3539 31.7413 66.9699 32.4027 66.4792 33C66.0099 33.5973 65.4446 34.12 64.7833 34.568C64.1219 35.0373 63.3966 35.4 62.6073 35.656L57.9352 37.224L56.7192 33.512L61.5833 31.944C62.3513 31.7093 62.9593 31.2613 63.4073 30.6C63.8766 29.9387 64.1113 29.2027 64.1113 28.392V17.032H68.0793ZM78.575 24.328H82.991V21.064C82.991 20.808 82.895 20.584 82.703 20.392C82.5323 20.2 82.3083 20.104 82.031 20.104H79.279C79.0443 20.104 78.8417 20.1787 78.671 20.328C78.5003 20.4773 78.3937 20.6693 78.351 20.904L77.839 23.464C77.7963 23.6987 77.8497 23.9013 77.999 24.072C78.1483 24.2427 78.3403 24.328 78.575 24.328ZM73.871 23.144L74.511 19.848C74.6177 19.2293 74.831 18.664 75.151 18.152C75.471 17.6187 75.855 17.1707 76.303 16.808C76.7723 16.424 77.295 16.1253 77.871 15.912C78.447 15.6987 79.0443 15.592 79.663 15.592H81.455C82.223 15.592 82.9377 15.7413 83.599 16.04C84.2603 16.3173 84.8363 16.712 85.327 17.224C85.839 17.7147 86.2337 18.2907 86.511 18.952C86.8097 19.6133 86.959 20.328 86.959 21.096V24.776C86.959 25.352 86.8417 25.896 86.607 26.408C86.3937 26.92 86.095 27.368 85.711 27.752C85.327 28.136 84.879 28.4453 84.367 28.68C83.855 28.8933 83.311 29 82.735 29H79.087C78.4683 29 77.8603 28.8827 77.263 28.648C76.687 28.392 76.1537 27.9227 75.663 27.24C75.1723 27.9013 74.6283 28.36 74.031 28.616C73.4337 28.872 72.7937 29 72.111 29H71.375C71.2683 29 71.1723 28.9573 71.087 28.872C70.9803 28.7867 70.927 28.68 70.927 28.552V24.776C70.927 24.4773 71.0763 24.328 71.375 24.328H72.399C72.7617 24.328 73.071 24.2213 73.327 24.008C73.6043 23.7947 73.7857 23.5067 73.871 23.144ZM92.8203 27.208V17.576H96.7883V26.664C96.7883 27.1333 96.8736 27.5707 97.0443 27.976C97.2149 28.36 97.4496 28.7013 97.7483 29C98.0469 29.2987 98.3989 29.5333 98.8043 29.704C99.2096 29.8747 99.6363 29.96 100.084 29.96H105.876C106.26 29.96 106.612 29.8853 106.932 29.736C107.252 29.608 107.53 29.416 107.764 29.16C108.02 28.9253 108.212 28.648 108.34 28.328C108.49 28.008 108.564 27.6667 108.564 27.304V17.064H112.532V23.08C112.532 23.4427 112.639 23.7413 112.852 23.976C113.087 24.2107 113.375 24.328 113.716 24.328H115.796C115.924 24.328 116.031 24.3813 116.116 24.488C116.202 24.5733 116.244 24.68 116.244 24.808V28.552C116.244 28.6587 116.202 28.7653 116.116 28.872C116.031 28.9573 115.924 29 115.796 29H114.548C113.93 29 113.45 28.8933 113.108 28.68C112.788 28.4667 112.575 28.2853 112.468 28.136V28.808C112.468 29.6187 112.287 30.376 111.924 31.08C111.562 31.784 111.071 32.392 110.452 32.904C109.855 33.4373 109.151 33.8533 108.34 34.152C107.551 34.472 106.719 34.632 105.844 34.632H100.244C99.2203 34.632 98.2603 34.44 97.3643 34.056C96.4683 33.672 95.6789 33.1387 94.9963 32.456C94.3349 31.7947 93.8016 31.0053 93.3963 30.088C93.0123 29.192 92.8203 28.232 92.8203 27.208ZM100.66 13.064H104.66V17.064H100.66V13.064ZM116.389 32.84H120.357V36.84H116.389V32.84ZM122.021 32.84H126.021V36.84H122.021V32.84ZM124.165 24.328C124.528 24.328 124.827 24.2107 125.061 23.976C125.317 23.72 125.445 23.4107 125.445 23.048V16.136H129.413V23.016C129.413 23.848 129.253 24.6267 128.933 25.352C128.635 26.0773 128.208 26.7173 127.653 27.272C127.12 27.8053 126.491 28.232 125.765 28.552C125.04 28.8507 124.261 29 123.429 29H115.781C115.653 29 115.547 28.9573 115.461 28.872C115.376 28.7653 115.333 28.6587 115.333 28.552V24.84C115.333 24.712 115.376 24.5947 115.461 24.488C115.547 24.3813 115.653 24.328 115.781 24.328H124.165ZM139.298 17.032V23.24C139.298 23.56 139.426 23.8267 139.682 24.04C139.938 24.232 140.226 24.328 140.546 24.328H142.594C142.893 24.328 143.042 24.4773 143.042 24.776V28.552C143.042 28.8507 142.893 29 142.594 29H141.186C140.866 29 140.525 28.936 140.162 28.808C139.799 28.6587 139.501 28.4347 139.266 28.136V28.68C139.266 29.512 139.127 30.2907 138.85 31.016C138.573 31.7413 138.189 32.4027 137.698 33C137.229 33.5973 136.663 34.12 136.002 34.568C135.341 35.0373 134.615 35.4 133.826 35.656L129.154 37.224L127.938 33.512L132.802 31.944C133.57 31.7093 134.178 31.2613 134.626 30.6C135.095 29.9387 135.33 29.2027 135.33 28.392V17.032H139.298ZM148.546 24.328C148.908 24.328 149.207 24.2107 149.442 23.976C149.698 23.72 149.826 23.4107 149.826 23.048V16.136H153.794V23.016C153.794 23.848 153.634 24.6267 153.314 25.352C153.015 26.0773 152.588 26.7173 152.034 27.272C151.5 27.8053 150.871 28.232 150.146 28.552C149.42 28.8507 148.642 29 147.81 29H142.594C142.466 29 142.359 28.9573 142.274 28.872C142.188 28.7653 142.146 28.6587 142.146 28.552V24.84C142.146 24.712 142.188 24.5947 142.274 24.488C142.359 24.3813 142.466 24.328 142.594 24.328H148.546ZM144.162 13.512H148.162V9.512H144.162V13.512ZM149.826 13.512H153.826V9.512H149.826V13.512ZM161.673 17.032V23.24C161.673 23.56 161.801 23.8267 162.057 24.04C162.313 24.232 162.601 24.328 162.921 24.328H164.969C165.268 24.328 165.417 24.4773 165.417 24.776V28.552C165.417 28.8507 165.268 29 164.969 29H163.561C163.241 29 162.9 28.936 162.537 28.808C162.174 28.6587 161.876 28.4347 161.641 28.136V28.68C161.641 29.512 161.502 30.2907 161.225 31.016C160.948 31.7413 160.564 32.4027 160.073 33C159.604 33.5973 159.038 34.12 158.377 34.568C157.716 35.0373 156.99 35.4 156.201 35.656L151.529 37.224L150.313 33.512L155.177 31.944C155.945 31.7093 156.553 31.2613 157.001 30.6C157.47 29.9387 157.705 29.2027 157.705 28.392V17.032H161.673ZM165.833 32.84H169.833V36.84H165.833V32.84ZM170.921 24.328C171.283 24.328 171.582 24.2107 171.817 23.976C172.073 23.72 172.201 23.4107 172.201 23.048V16.136H176.169V23.016C176.169 23.848 176.009 24.6267 175.689 25.352C175.39 26.0773 174.963 26.7173 174.409 27.272C173.875 27.8053 173.246 28.232 172.521 28.552C171.795 28.8507 171.017 29 170.185 29H164.969C164.841 29 164.734 28.9573 164.649 28.872C164.563 28.7653 164.521 28.6587 164.521 28.552V24.84C164.521 24.712 164.563 24.5947 164.649 24.488C164.734 24.3813 164.841 24.328 164.969 24.328H170.921Z" fill="#222222"/>
<path opacity="0.8" d="M37.966 45H175.193C176.134 45 176.554 46.1801 175.826 46.7747L163.575 56.7747C163.396 56.9204 163.173 57 162.942 57H24.0968C23.1262 57 22.7247 55.7565 23.5119 55.1889L37.3812 45.1889C37.5515 45.0661 37.7561 45 37.966 45Z" fill="#0A84E9"/>
<path opacity="0.8" d="M10.7689 49H80.7663C81.7496 49 82.1424 50.2704 81.3308 50.8254L72.5573 56.8254C72.391 56.9392 72.1942 57 71.9928 57H2.94674C1.9912 57 1.57994 55.7881 2.33812 55.2065L10.1603 49.2065C10.3349 49.0726 10.5488 49 10.7689 49Z" fill="#91FFFF"/>
</svg>
