<svg width="66" height="84" viewBox="0 0 66 84" fill="none" xmlns="http://www.w3.org/2000/svg">
<path d="M35.9784 1.56614C35.3118 2.49947 33.5784 6.23281 32.3784 9.96614C26.5118 26.2328 19.1784 33.8328 7.17843 36.6328C-1.7549 38.6328 -2.42157 42.0995 5.57843 44.8995C17.4451 48.8995 21.3118 53.4328 25.5784 68.6328C29.0451 80.6328 31.1784 84.2328 34.6451 83.6995C37.0451 83.4328 37.9784 81.6995 39.8451 74.4995C43.4451 59.8328 47.8451 53.9661 59.5784 47.9661C65.9784 44.6328 67.4451 41.2995 63.4451 38.6328C54.1118 32.3661 49.5784 25.9661 45.4451 13.2995C41.4451 0.766144 38.9118 -2.30052 35.9784 1.56614ZM42.1118 24.7661C44.3784 29.5661 48.1118 35.2995 50.5118 37.5661L54.7784 41.5661L50.9118 44.3661C44.9118 48.6328 38.5118 55.6995 35.7118 61.1661L33.1784 65.9661L31.8451 62.6328C28.3784 53.5661 24.2451 46.3661 21.4451 44.0995L18.2451 41.5661L25.1784 34.3661C29.0451 30.3661 33.4451 24.6328 34.7784 21.5661C36.2451 18.4995 37.4451 15.9661 37.7118 15.9661C37.8451 15.9661 39.8451 19.9661 42.1118 24.7661Z" fill="#FF3263"/>
</svg>
