<svg width="40" height="40" viewBox="0 0 40 40" fill="none" xmlns="http://www.w3.org/2000/svg">
<path d="M23.334 18.3335V13.3335L15.0007 20.0002L23.334 26.6668V21.6668H38.334V18.3335H23.334ZM35.9043 25.0002H32.3648C30.3868 29.8865 25.5963 33.3335 20.0007 33.3335C12.6368 33.3335 6.66732 27.364 6.66732 20.0002C6.66732 12.6364 12.6368 6.66683 20.0007 6.66683C25.5963 6.66683 30.3868 10.1138 32.3648 15.0002H35.9043C33.7805 8.23831 27.4634 3.3335 20.0007 3.3335C10.796 3.3335 3.33398 10.7954 3.33398 20.0002C3.33398 29.2048 10.796 36.6668 20.0007 36.6668C27.4634 36.6668 33.7805 31.762 35.9043 25.0002Z" fill="white"/>
</svg>
