<svg width="18" height="18" viewBox="0 0 18 18" fill="none" xmlns="http://www.w3.org/2000/svg">
<g clip-path="url(#clip0_1_2433)">
<path d="M4.5 2.25C7.1175 2.25 9.28725 4.1655 9.68475 6.67125C10.566 5.793 11.7825 5.25 13.125 5.25H16.5V7.125C16.5 9.8175 14.3175 12 11.625 12H9.75V15.75H8.25V9.75H6.75C3.8505 9.75 1.5 7.3995 1.5 4.5V2.25H4.5ZM15 6.75H13.125C11.2613 6.75 9.75 8.26125 9.75 10.125V10.5H11.625C13.4887 10.5 15 8.98875 15 7.125V6.75ZM4.5 3.75H3V4.5C3 6.57075 4.67925 8.25 6.75 8.25H8.25V7.5C8.25 5.42925 6.57075 3.75 4.5 3.75Z" fill="#5D7BD5"/>
</g>
<defs>
<clipPath id="clip0_1_2433">
<rect width="18" height="18" fill="white"/>
</clipPath>
</defs>
</svg>
