<svg width="24" height="24" viewBox="0 0 24 24" fill="none" xmlns="http://www.w3.org/2000/svg">
<path fill-rule="evenodd" clip-rule="evenodd" d="M2.03705 11.2928C8.23854 8.59095 12.3738 6.8097 14.4429 5.94909C20.3507 3.49187 21.5782 3.06503 22.3783 3.05093C22.5543 3.04783 22.9478 3.09144 23.2027 3.29826C23.4179 3.47289 23.4771 3.70879 23.5054 3.87435C23.5338 4.03992 23.569 4.41709 23.541 4.7118C23.2209 8.07554 21.8356 16.2385 21.1309 20.0059C20.8327 21.6001 20.2455 22.1346 19.6771 22.1869C18.4417 22.3006 17.5036 21.3705 16.3071 20.5862C14.4348 19.3588 13.3771 18.5948 11.5597 17.3972C9.45943 16.0131 10.821 15.2524 12.0179 14.0092C12.3312 13.6839 17.7742 8.73304 17.8795 8.28392C17.8927 8.22775 17.9049 8.01838 17.7806 7.90782C17.6562 7.79726 17.4726 7.83507 17.3401 7.86514C17.1523 7.90776 14.1613 9.88471 8.36707 13.796C7.51808 14.379 6.74909 14.663 6.0601 14.6481C5.30055 14.6317 3.83948 14.2187 2.75332 13.8656C1.4211 13.4325 0.36228 13.2036 0.45448 12.4681C0.502503 12.0851 1.03003 11.6933 2.03705 11.2928Z" fill="url(#paint0_linear_548_1212)"/>
<defs>
<linearGradient id="paint0_linear_548_1212" x1="12.0001" y1="3.05078" x2="12.0001" y2="22.0544" gradientUnits="userSpaceOnUse">
<stop stop-color="#2AABEE"/>
<stop offset="1" stop-color="#229ED9"/>
</linearGradient>
</defs>
</svg>
