<svg width="65" height="138" viewBox="0 0 65 138" fill="none" xmlns="http://www.w3.org/2000/svg">
<path d="M0.381897 105.148C0.381897 103.34 1.84715 101.875 3.65462 101.875H31.6546C49.7294 101.875 64.3819 116.527 64.3819 134.602C64.3819 136.41 62.9166 137.875 61.1092 137.875H33.1092C15.0344 137.875 0.381897 123.223 0.381897 105.148Z" fill="#56D1DC"/>
<path d="M64.3819 56.875C64.3819 61.3399 63.5542 65.7612 61.946 69.8862C60.3379 74.0113 57.9808 77.7594 55.0093 80.9166C52.0378 84.0738 48.5102 86.5782 44.6278 88.2869C40.7453 89.9956 36.5842 90.875 32.3819 90.875L32.3819 56.875H64.3819Z" fill="#B799FF"/>
<path d="M32.3819 90.875C28.1796 90.875 24.0184 89.9956 20.136 88.2869C16.2536 86.5782 12.726 84.0738 9.75448 80.9166C6.783 77.7594 4.4259 74.0113 2.81775 69.8862C1.2096 65.7612 0.381897 61.3399 0.381897 56.875L32.3819 56.875L32.3819 90.875Z" fill="#FF3263"/>
<path d="M64.2995 4C64.2995 1.79087 62.5086 0 60.2995 0H40C17.9086 0 1.52588e-05 17.9086 1.52588e-05 40V43.5464C1.52588e-05 45.7556 1.79088 47.5464 4.00002 47.5464H24.2995C46.3909 47.5464 64.2995 29.6378 64.2995 7.54643V4Z" fill="#5D7BD5"/>
</svg>
