<svg width="32" height="32" viewBox="0 0 32 32" fill="none" xmlns="http://www.w3.org/2000/svg">
<path d="M14.666 2.66675C21.29 2.66675 26.666 8.04275 26.666 14.6667C26.666 21.2907 21.29 26.6667 14.666 26.6667C8.04202 26.6667 2.66602 21.2907 2.66602 14.6667C2.66602 8.04275 8.04202 2.66675 14.666 2.66675ZM14.666 24.0001C19.8227 24.0001 23.9993 19.8234 23.9993 14.6667C23.9993 9.51008 19.8227 5.33341 14.666 5.33341C9.50935 5.33341 5.33268 9.51008 5.33268 14.6667C5.33268 19.8234 9.50935 24.0001 14.666 24.0001ZM25.9797 24.0949L29.7509 27.8661L27.8653 29.7517L24.0941 25.9805L25.9797 24.0949Z" fill="white"/>
</svg>
