<svg width="178" height="12" viewBox="0 0 178 12" fill="none" xmlns="http://www.w3.org/2000/svg">
<path opacity="0.8" d="M37.966 0H175.193C176.134 0 176.554 1.18006 175.826 1.77469L163.575 11.7747C163.396 11.9204 163.173 12 162.942 12H24.0968C23.1262 12 22.7247 10.7565 23.5119 10.1889L37.3812 0.188858C37.5515 0.0660741 37.7561 0 37.966 0Z" fill="#0A84E9"/>
<path opacity="0.8" d="M10.7689 4H80.7663C81.7496 4 82.1424 5.27036 81.3308 5.82543L72.5573 11.8254C72.391 11.9392 72.1942 12 71.9928 12H2.94674C1.9912 12 1.57994 10.7881 2.33812 10.2065L10.1603 4.20654C10.3349 4.0726 10.5488 4 10.7689 4Z" fill="#91FFFF"/>
</svg>
